<svg width="95" height="87" fill="none" xmlns="http://www.w3.org/2000/svg"><path fill="#62D6B3" d="M.121 84.021l12.021-12.02 2.121 2.12-12.02 12.022z"/><path fill="#62D6B3" d="M2.121 72.02l12.02 12.022-2.12 2.12L0 74.143zm26 12.001l12.021-12.02 2.121 2.12-12.02 12.022z"/><path fill="#62D6B3" d="M30.121 72.02l12.02 12.022-2.12 2.12L28 74.143zm24 12.001l12.021-12.02 2.121 2.12-12.02 12.022z"/><path fill="#62D6B3" d="M56.121 72.02l12.02 12.022-2.12 2.12L54 74.143zm24 12.001l12.021-12.02 2.121 2.12-12.02 12.022z"/><path fill="#62D6B3" d="M82.121 72.02l12.02 12.022-2.12 2.12L80 74.143zm-82-11.999l12.021-12.02 2.121 2.12-12.02 12.022z"/><path fill="#62D6B3" d="M2.121 48.02l12.02 12.022-2.12 2.12L0 50.143zm26 12.001l12.021-12.02 2.121 2.12-12.02 12.022z"/><path fill="#62D6B3" d="M30.121 48.02l12.02 12.022-2.12 2.12L28 50.143zm24 12.001l12.021-12.02 2.121 2.12-12.02 12.022z"/><path fill="#62D6B3" d="M56.121 48.02l12.02 12.022-2.12 2.12L54 50.143zm24 12.001l12.021-12.02 2.121 2.12-12.02 12.022z"/><path fill="#62D6B3" d="M82.121 48.02l12.02 12.022-2.12 2.12L80 50.143zm-82-11.999l12.021-12.02 2.121 2.12-12.02 12.022z"/><path fill="#62D6B3" d="M2.121 24.02l12.02 12.022-2.12 2.12L0 26.143zm26 12.001l12.021-12.02 2.121 2.12-12.02 12.022z"/><path fill="#62D6B3" d="M30.121 24.02l12.02 12.022-2.12 2.12L28 26.143zm24 12.001l12.021-12.02 2.121 2.12-12.02 12.022z"/><path fill="#62D6B3" d="M56.121 24.02l12.02 12.022-2.12 2.12L54 26.143zm24 12.001l12.021-12.02 2.121 2.12-12.02 12.022z"/><path fill="#62D6B3" d="M82.121 24.02l12.02 12.022-2.12 2.12L80 26.143zm-82-11.999L12.142.001l2.121 2.12-12.02 12.022z"/><path fill="#62D6B3" d="M2.121.02l12.02 12.022-2.12 2.12L0 2.143zm26 12.001L40.142.001l2.121 2.12-12.02 12.022z"/><path fill="#62D6B3" d="M30.121.02l12.02 12.022-2.12 2.12L28 2.143zm24 12.001L66.142.001l2.121 2.12-12.02 12.022z"/><path fill="#62D6B3" d="M56.121.02l12.02 12.022-2.12 2.12L54 2.143zm24 12.001L92.142.001l2.121 2.12-12.02 12.022z"/><path fill="#62D6B3" d="M82.121.02l12.02 12.022-2.12 2.12L80 2.143z"/></svg>