<svg width="95" height="87" fill="none" xmlns="http://www.w3.org/2000/svg"><path fill="#DCDCDC" d="M.121 84.021l12.021-12.02 2.121 2.12-12.02 12.021z"/><path fill="#DCDCDC" d="M2.12 72.02l12.022 12.022-2.122 2.12L0 74.143zm26.001 12.001l12.021-12.02 2.121 2.12-12.02 12.021z"/><path fill="#DCDCDC" d="M30.12 72.02l12.022 12.022-2.122 2.12L28 74.143zm24.001 12.001l12.021-12.02 2.121 2.12-12.02 12.021z"/><path fill="#DCDCDC" d="M56.12 72.02l12.022 12.022-2.122 2.12L54 74.143zm24.001 12.001l12.021-12.02 2.121 2.12-12.02 12.021z"/><path fill="#DCDCDC" d="M82.12 72.02l12.022 12.022-2.122 2.12L80 74.143zM.121 60.021l12.021-12.02 2.121 2.12-12.02 12.021z"/><path fill="#DCDCDC" d="M2.12 48.02l12.022 12.022-2.122 2.12L0 50.143zm26.001 12.001l12.021-12.02 2.121 2.12-12.02 12.021z"/><path fill="#DCDCDC" d="M30.12 48.02l12.022 12.022-2.122 2.12L28 50.143zm24.001 12.001l12.021-12.02 2.121 2.12-12.02 12.021z"/><path fill="#DCDCDC" d="M56.12 48.02l12.022 12.022-2.122 2.12L54 50.143zm24.001 12.001l12.021-12.02 2.121 2.12-12.02 12.021z"/><path fill="#DCDCDC" d="M82.12 48.02l12.022 12.022-2.122 2.12L80 50.143zM.121 36.021l12.021-12.02 2.121 2.12-12.02 12.021z"/><path fill="#DCDCDC" d="M2.12 24.02l12.022 12.022-2.122 2.12L0 26.143zm26.001 12.001l12.021-12.02 2.121 2.12-12.02 12.021z"/><path fill="#DCDCDC" d="M30.12 24.02l12.022 12.022-2.122 2.12L28 26.143zm24.001 12.001l12.021-12.02 2.121 2.12-12.02 12.021z"/><path fill="#DCDCDC" d="M56.12 24.02l12.022 12.022-2.122 2.12L54 26.143zm24.001 12.001l12.021-12.02 2.121 2.12-12.02 12.021z"/><path fill="#DCDCDC" d="M82.12 24.02l12.022 12.022-2.122 2.12L80 26.143zM.121 12.021L12.142.001l2.121 2.12-12.02 12.021z"/><path fill="#DCDCDC" d="M2.12.02l12.022 12.022-2.122 2.12L0 2.143zm26.001 12.001L40.142.001l2.121 2.12-12.02 12.021z"/><path fill="#DCDCDC" d="M30.12.02l12.022 12.022-2.122 2.12L28 2.143zm24.001 12.001L66.142.001l2.121 2.12-12.02 12.021z"/><path fill="#DCDCDC" d="M56.12.02l12.022 12.022-2.122 2.12L54 2.143zm24.001 12.001L92.142.001l2.121 2.12-12.02 12.021z"/><path fill="#DCDCDC" d="M82.12.02l12.022 12.022-2.122 2.12L80 2.143z"/></svg>