<svg width="103" height="75" fill="none" xmlns="http://www.w3.org/2000/svg"><path d="M101.896 33.238c-.781-3.68-2.708-6.916-5.428-9.116-2.65-2.113-5.824-3.224-9.066-3.174H73.206v2.701h4.175l-.597 32.415h8.53a25.844 25.844 0 005.548-.608c2.018-.356 3.937-1.234 5.606-2.566 1.514-1.197 2.798-2.73 3.772-4.507a16.735 16.735 0 001.895-5.825c.06-.54.835-5.403-.239-9.32zm-1.908 7.766c-.597 4.93-2.267 7.564-4.414 9.455-.835.742-4.534 2.903-10.677 2.903h-5.13V23.65h7.754c2.892-.054 5.721.965 8.053 2.904a11.411 11.411 0 012.804 3.403 12.867 12.867 0 011.43 4.363c.776 4.187.18 6.685.18 6.685zM47.2 19.598c-8.71 0-15.808 8.17-15.808 18.233 0 10.062 7.098 18.233 15.807 18.233s15.807-8.171 15.807-18.233c0-10.062-7.098-18.233-15.807-18.233zm0 33.765c-3.599-.049-7.033-1.712-9.549-4.623-2.516-2.913-3.909-6.836-3.873-10.91-.039-2.023.28-4.035.936-5.917a15.536 15.536 0 012.89-5.044c1.25-1.447 2.742-2.596 4.39-3.38a12.083 12.083 0 015.205-1.19c1.788 0 3.558.404 5.205 1.19 1.648.784 3.141 1.933 4.391 3.38a15.536 15.536 0 012.89 5.044c.656 1.882.974 3.894.935 5.918.036 4.073-1.357 7.996-3.873 10.908-2.516 2.913-5.95 4.575-9.548 4.624zM3 23.514v-2.363h5.846l10.259 30.456 9.245-28.093h-3.698v-2.363h10.021v2.363h-4.235L19.94 56.064h-2.147L6.996 23.514H3zm66.308-2.981v35.531h-2.55V20.533h2.55z" fill="#3AB2B4"/></svg>