<svg width="82" height="94" fill="none" xmlns="http://www.w3.org/2000/svg"><path d="M0 62.656a8.53 8.53 0 00.966 3.969c.633 1.2 1.542 2.183 2.63 2.845a6.184 6.184 0 003.545.913 6.302 6.302 0 003.458-1.277L21.635 81.6a8.377 8.377 0 00-1.061 3.158 8.717 8.717 0 00.23 3.37c.295 1.09.8 2.092 1.477 2.936a6.902 6.902 0 002.442 1.943c.93.436 1.934.634 2.94.58a6.23 6.23 0 002.878-.895 7.147 7.147 0 002.267-2.2 8.26 8.26 0 001.222-3.082h13.942a8.265 8.265 0 001.22 3.087 7.151 7.151 0 002.267 2.203c.89.537 1.873.843 2.88.898a6.131 6.131 0 002.944-.58 6.904 6.904 0 002.444-1.945 8.047 8.047 0 001.476-2.94 8.719 8.719 0 00.228-3.373 8.375 8.375 0 00-1.065-3.16l5.945-6.73-1.933-2.188-5.945 6.73a6.337 6.337 0 00-3.115-1.25 6.112 6.112 0 00-3.268.552 6.96 6.96 0 00-2.656 2.225 8.203 8.203 0 00-1.423 3.377H34.03c-.366-2.014-1.425-3.781-2.942-4.913l.795-2.249-2.538-1.149-.794 2.247c-1.73-.358-3.517.058-4.982 1.16L12.533 66.92c.974-1.659 1.34-3.68 1.025-5.64l10.185-4.612-1.015-2.873-10.189 4.612c-.999-1.718-2.56-2.916-4.339-3.33V39.293c1.78-.415 3.34-1.613 4.34-3.33l10.186 4.612 1.015-2.873-10.185-4.613c.316-1.959-.051-3.981-1.025-5.64l8.507-9.631-1.931-2.188-8.508 9.63a6.374 6.374 0 00-2.79-1.2 6.07 6.07 0 00-2.976.26 6.678 6.678 0 00-2.594 1.671 7.808 7.808 0 00-1.717 2.765 8.649 8.649 0 00-.512 3.329 8.534 8.534 0 00.79 3.258 7.557 7.557 0 001.943 2.566 6.48 6.48 0 002.724 1.384v15.783c-1.543.358-2.928 1.308-3.924 2.689-.996 1.38-1.54 3.107-1.543 4.89zM54.667 81.22c.81 0 1.603.273 2.277.783.675.51 1.2 1.234 1.51 2.083.31.848.392 1.781.234 2.681a4.86 4.86 0 01-1.122 2.377 3.977 3.977 0 01-2.1 1.27 3.65 3.65 0 01-2.368-.264c-.75-.351-1.39-.946-1.84-1.71a5.088 5.088 0 01-.691-2.578c0-1.23.433-2.41 1.202-3.28.769-.87 1.81-1.36 2.898-1.362zm-27.334 0a3.77 3.77 0 012.278.783 4.56 4.56 0 011.51 2.083c.31.848.392 1.781.234 2.681a4.86 4.86 0 01-1.122 2.377 3.978 3.978 0 01-2.1 1.27c-.795.18-1.62.087-2.369-.264-.749-.351-1.39-.946-1.84-1.71a5.088 5.088 0 01-.69-2.578c0-1.23.433-2.41 1.202-3.28.768-.87 1.81-1.36 2.897-1.362zm-24.6-49.508c0-.918.24-1.816.691-2.58a4.265 4.265 0 011.84-1.709 3.658 3.658 0 012.37-.264c.795.18 1.525.622 2.098 1.27.574.65.964 1.477 1.123 2.377a5.21 5.21 0 01-.234 2.682 4.566 4.566 0 01-1.51 2.083 3.769 3.769 0 01-2.278.782c-1.087-.001-2.129-.49-2.897-1.361-.769-.87-1.201-2.05-1.203-3.28zm4.1 26.301c.811 0 1.604.272 2.278.782.674.51 1.2 1.235 1.51 2.083.31.849.392 1.782.234 2.682a4.859 4.859 0 01-1.123 2.377 3.978 3.978 0 01-2.099 1.27 3.66 3.66 0 01-2.369-.264 4.261 4.261 0 01-1.84-1.71 5.087 5.087 0 01-.69-2.578c0-1.231.433-2.41 1.202-3.28.768-.871 1.81-1.36 2.897-1.362zM82 31.713c0-1.398-.333-2.77-.966-3.97-.633-1.2-1.542-2.183-2.63-2.845a6.185 6.185 0 00-3.545-.913 6.302 6.302 0 00-3.458 1.277L60.365 12.768a8.375 8.375 0 001.062-3.158 8.715 8.715 0 00-.23-3.37 8.045 8.045 0 00-1.476-2.937 6.902 6.902 0 00-2.442-1.944 6.13 6.13 0 00-2.941-.58 6.232 6.232 0 00-2.879.896 7.148 7.148 0 00-2.267 2.2 8.262 8.262 0 00-1.221 3.083H34.03c-.268-1.494-.92-2.866-1.873-3.943-.954-1.078-2.167-1.812-3.488-2.111a6.1 6.1 0 00-3.937.427c-1.247.579-2.315 1.56-3.07 2.823a8.478 8.478 0 00-1.177 4.275 8.505 8.505 0 001.11 4.298c.736 1.277 1.789 2.28 3.027 2.883a6.11 6.11 0 003.93.506l.793 2.247 2.538-1.15-.795-2.248c1.517-1.131 2.575-2.898 2.942-4.912h13.942c.366 2.014 1.424 3.78 2.941 4.912l-1.341 3.796 2.538 1.15 1.34-3.795c1.731.358 3.517-.058 4.983-1.16l11.036 12.493c-.974 1.659-1.341 3.681-1.025 5.64l-10.185 4.612 1.015 2.873 10.187-4.613a7.389 7.389 0 001.877 2.155 6.452 6.452 0 002.462 1.178v15.783c-1.78.414-3.34 1.612-4.34 3.33l-4.036-1.828-1.015 2.873 4.035 1.827c-.316 1.96.051 3.981 1.025 5.64l-2.7 3.056 1.933 2.188 2.7-3.056a6.375 6.375 0 002.79 1.202 6.07 6.07 0 002.976-.26 6.679 6.679 0 002.595-1.672 7.81 7.81 0 001.717-2.765 8.65 8.65 0 00.511-3.33 8.533 8.533 0 00-.79-3.258 7.558 7.558 0 00-1.944-2.566 6.48 6.48 0 00-2.724-1.383V39.294c1.543-.36 2.929-1.31 3.925-2.69.995-1.381 1.54-3.109 1.542-4.891zM27.333 13.147c-.81 0-1.603-.272-2.277-.783a4.566 4.566 0 01-1.51-2.083 5.213 5.213 0 01-.234-2.681c.158-.9.549-1.728 1.122-2.377a3.977 3.977 0 012.1-1.27 3.658 3.658 0 012.368.264c.75.351 1.39.946 1.84 1.71.45.763.691 1.66.691 2.578 0 1.23-.433 2.41-1.202 3.28-.769.87-1.81 1.36-2.898 1.362zm27.334 0a3.763 3.763 0 01-2.278-.783 4.566 4.566 0 01-1.51-2.083 5.212 5.212 0 01-.234-2.681 4.88 4.88 0 011.122-2.377 3.978 3.978 0 012.1-1.27 3.658 3.658 0 012.369.264c.749.351 1.39.946 1.84 1.71.45.763.69 1.66.69 2.578 0 1.23-.433 2.41-1.202 3.28-.768.87-1.81 1.36-2.897 1.362zm24.6 49.509a5.08 5.08 0 01-.691 2.578 4.255 4.255 0 01-1.84 1.71 3.658 3.658 0 01-2.37.264 3.978 3.978 0 01-2.099-1.27 4.86 4.86 0 01-1.122-2.377 5.212 5.212 0 01.234-2.682 4.566 4.566 0 011.51-2.083 3.77 3.77 0 012.278-.782c1.087.002 2.129.491 2.897 1.361.769.87 1.201 2.05 1.203 3.28zm-4.1-26.302a3.77 3.77 0 01-2.278-.782 4.566 4.566 0 01-1.51-2.083 5.212 5.212 0 01-.234-2.682 4.87 4.87 0 011.123-2.376 3.978 3.978 0 012.099-1.27 3.658 3.658 0 012.369.263c.749.352 1.39.947 1.84 1.71.45.763.69 1.66.69 2.579 0 1.23-.433 2.41-1.202 3.28-.768.87-1.81 1.36-2.897 1.361zM28.7 33.26v35.584c0 .82.29 1.607.802 2.187.512.58 1.207.906 1.931.907h15.034v3.095H31.433c-1.449-.002-2.838-.655-3.863-1.815s-1.602-2.733-1.603-4.374V33.26H28.7zm31.433 37.13V53.482a6.86 6.86 0 00-.413-2.369 6.254 6.254 0 00-1.188-2.006l-2.499-2.83v11.096l2.333 2.641-1.932 2.188-2.734-3.094-4.617-5.227a1.536 1.536 0 00-.498-.376 1.38 1.38 0 00-1.172 0 1.536 1.536 0 00-.498.376 1.767 1.767 0 00-.332.563 1.936 1.936 0 000 1.328c.077.21.19.401.333.562l4.617 5.228c.224.253.363.585.394.941.03.356-.048.713-.223 1.01a8.818 8.818 0 00-1.18 3.974 9 9 0 00.736 4.108l.53 1.199c.094.215.144.452.143.692v1.547H49.2V73.85l-.385-.873a12.416 12.416 0 01-1.038-5.041c.007-1.75.377-3.472 1.078-5.03l-3.872-4.385c-.795-.907-1.24-2.133-1.237-3.41.003-1.278.452-2.502 1.25-3.405.797-.903 1.879-1.411 3.007-1.414 1.128-.003 2.212.5 3.013 1.4l2.284 2.586V27.07c0-.82-.29-1.607-.801-2.187-.513-.58-1.208-.906-1.932-.907H47.31l-.989 2.239a1.494 1.494 0 01-.504.624 1.25 1.25 0 01-.718.231h-8.2a1.25 1.25 0 01-.718-.23 1.494 1.494 0 01-.504-.625l-.99-2.24h-3.255c-.724.002-1.42.328-1.931.908-.513.58-.801 1.367-.802 2.187v3.094h-2.733V27.07c.001-1.64.578-3.214 1.603-4.374 1.024-1.16 2.414-1.813 3.863-1.814h19.134c1.449.001 2.839.654 3.863 1.814 1.025 1.16 1.602 2.733 1.603 4.374V41.9l4.432 5.018a9.382 9.382 0 011.782 3.01c.412 1.126.623 2.334.62 3.553v16.91h-2.734zm-21.866-4.64h5.466v3.094h-5.466V65.75zm5.867-19.019c-.832-.94-1.96-1.467-3.134-1.467-1.175 0-2.302.527-3.134 1.467l-1.932-2.188C37.278 43.024 39.1 42.17 41 42.17s3.722.853 5.066 2.372l-1.932 2.188zm4.1-3.89a10.245 10.245 0 00-3.32-2.511A9.204 9.204 0 0041 39.448c-1.343 0-2.674.3-3.915.882a10.245 10.245 0 00-3.319 2.51l-1.932-2.188c2.433-2.748 5.73-4.291 9.166-4.291 3.437 0 6.733 1.543 9.166 4.291l-1.932 2.188zm-5.867 8.984v3.095h-2.734v-3.095h2.734zm-8.2 0H36.9v3.095h-2.733v-3.095z" fill="#DCDCDC"/></svg>