<svg width="95" height="97" fill="none" xmlns="http://www.w3.org/2000/svg"><path d="M12.294 81.512a7.857 7.857 0 00-5.56-1.238 7.905 7.905 0 00-4.947 2.852A8.062 8.062 0 00.01 88.591a8.046 8.046 0 002.311 5.26 7.886 7.886 0 005.204 2.335 7.87 7.87 0 005.41-1.796 8.027 8.027 0 002.822-4.998 8.074 8.074 0 00-1.224-5.62l9.227-9.324V88.18a8.049 8.049 0 002.32 5.652 7.88 7.88 0 005.594 2.345h26.905v-3.199H31.674a4.728 4.728 0 01-3.356-1.407 4.83 4.83 0 01-1.392-3.39V71.25L37.54 60.523l-2.239-2.262-8.376 8.465V56.53l3.647-1.18-.964-3.046-2.683.868v-9.948l9.013 2.915.965-3.047-9.978-3.227v-7.66H23.76v6.637l-7.96-2.575a8.07 8.07 0 00-1.454-5.563 7.918 7.918 0 00-4.77-3.142 7.853 7.853 0 00-5.624.902 7.991 7.991 0 00-3.573 4.482 8.085 8.085 0 00.324 5.745 7.964 7.964 0 004.054 4.041c1.8.794 3.828.883 5.69.251a7.943 7.943 0 004.385-3.67L23.76 42.2v11.995l-8.928 2.887a7.932 7.932 0 00-4.38-3.662 7.835 7.835 0 00-5.679.251 7.952 7.952 0 00-4.046 4.036 8.072 8.072 0 00-.324 5.735 7.979 7.979 0 003.567 4.474 7.84 7.84 0 005.614.902 7.905 7.905 0 004.763-3.136 8.057 8.057 0 001.453-5.554l7.96-2.574v12.372L12.294 81.512zm-4.36 11.466c-.94 0-1.857-.281-2.638-.808a4.787 4.787 0 01-1.749-2.154 4.845 4.845 0 01-.27-2.772 4.814 4.814 0 011.3-2.457 4.733 4.733 0 012.43-1.313 4.702 4.702 0 012.744.273 4.762 4.762 0 012.13 1.767 4.834 4.834 0 01-.592 6.057 4.728 4.728 0 01-3.355 1.407zm0-52.778c-.94 0-1.857-.281-2.638-.809a4.788 4.788 0 01-1.749-2.153 4.845 4.845 0 01-.27-2.772 4.814 4.814 0 011.3-2.457 4.733 4.733 0 012.43-1.313 4.703 4.703 0 012.744.273 4.76 4.76 0 012.13 1.767 4.834 4.834 0 01-.592 6.057A4.729 4.729 0 017.934 40.2zm0 25.59c-.94 0-1.857-.282-2.638-.81a4.787 4.787 0 01-1.749-2.152 4.845 4.845 0 01-.27-2.773 4.814 4.814 0 011.3-2.456 4.733 4.733 0 012.43-1.313 4.702 4.702 0 012.744.273 4.755 4.755 0 012.13 1.767 4.834 4.834 0 01-.592 6.056 4.729 4.729 0 01-3.355 1.407zm53.67-16.652a1.595 1.595 0 00-.584-.685 1.57 1.57 0 00-.858-.256h-7.507l4.302-18.832c.08-.352.04-.721-.114-1.047a1.591 1.591 0 00-.734-.749 1.568 1.568 0 00-1.922.427l-20.575 25.59a1.609 1.609 0 00.383 2.36c.252.161.545.247.844.248h7.25L34.93 76.447c-.124.35-.123.733.002 1.082.125.35.367.645.684.834a1.569 1.569 0 001.992-.32l23.74-27.189a1.607 1.607 0 00.255-1.716zM40.68 69.69l5.145-14.558a1.615 1.615 0 00-.197-1.46 1.586 1.586 0 00-1.293-.677h-6.17l14.17-17.626-3.212 14.067a1.616 1.616 0 00.304 1.356 1.585 1.585 0 001.239.603h5.988L40.68 69.69zM53.367 8.682l-2.238 2.262A5.11 5.11 0 0047.5 9.427a5.11 5.11 0 00-3.629 1.517l-2.238-2.262A8.263 8.263 0 0147.5 6.23c2.2 0 4.31.882 5.867 2.452zm2.51-1.76a11.839 11.839 0 00-3.843-2.595 11.74 11.74 0 00-9.067 0 11.838 11.838 0 00-3.844 2.596L36.885 4.66A14.95 14.95 0 0147.5.224 14.95 14.95 0 0158.115 4.66l-2.238 2.263zM7.934 16.21a7.807 7.807 0 004.36-1.328L38.468 41.33l2.238-2.262-13.78-13.925v-4.136a4.829 4.829 0 011.392-3.391 4.728 4.728 0 013.356-1.407h6.935l1.145 2.315c.132.265.334.489.584.645.25.156.538.239.832.239h12.66a1.593 1.593 0 001.416-.884l1.146-2.315h6.935a4.728 4.728 0 013.356 1.407c.89.9 1.39 2.119 1.392 3.391v4.136L55.877 37.47l2.238 2.262 9.96-10.065v10.197l-9.978 3.227.964 3.047 9.014-2.915v6.573h3.165V42.2l8.928-2.887a7.93 7.93 0 004.38 3.663c1.858.63 3.882.54 5.68-.252a7.952 7.952 0 004.046-4.035 8.072 8.072 0 00.323-5.736 7.978 7.978 0 00-3.566-4.473 7.84 7.84 0 00-5.615-.902 7.905 7.905 0 00-4.763 3.135 8.058 8.058 0 00-1.452 5.555l-7.96 2.574V26.469l11.465-11.587a7.857 7.857 0 005.561 1.237 7.905 7.905 0 004.946-2.85A8.062 8.062 0 0094.99 7.8a8.046 8.046 0 00-2.31-5.26A7.885 7.885 0 0087.474.208a7.87 7.87 0 00-5.41 1.795A8.027 8.027 0 0079.243 7a8.074 8.074 0 001.225 5.62l-9.228 9.325v-.937a8.049 8.049 0 00-2.32-5.652 7.881 7.881 0 00-5.593-2.345H31.674a7.88 7.88 0 00-5.593 2.345 8.05 8.05 0 00-2.32 5.652v.937l-9.228-9.325a8.059 8.059 0 00-.764-9.797A7.887 7.887 0 009.254.335a7.839 7.839 0 00-5.073.843A7.962 7.962 0 00.69 4.994a8.072 8.072 0 00-.43 5.178 8.001 8.001 0 002.81 4.351 7.858 7.858 0 004.863 1.687zm79.133 14.394c.939 0 1.857.282 2.638.809a4.788 4.788 0 011.749 2.153 4.85 4.85 0 01.27 2.772 4.813 4.813 0 01-1.3 2.457 4.733 4.733 0 01-2.43 1.313 4.703 4.703 0 01-2.744-.273 4.759 4.759 0 01-2.13-1.767 4.834 4.834 0 01.591-6.057 4.729 4.729 0 013.356-1.407zm0-27.189c.939 0 1.857.282 2.638.809a4.788 4.788 0 011.749 2.153 4.85 4.85 0 01.27 2.772 4.813 4.813 0 01-1.3 2.457 4.733 4.733 0 01-2.43 1.313 4.702 4.702 0 01-2.744-.273 4.759 4.759 0 01-2.13-1.767 4.834 4.834 0 01.591-6.057 4.729 4.729 0 013.356-1.407zm-79.133 0a4.71 4.71 0 012.637.809 4.787 4.787 0 011.75 2.153 4.85 4.85 0 01.27 2.772 4.814 4.814 0 01-1.3 2.457A4.733 4.733 0 018.86 12.92a4.702 4.702 0 01-2.743-.273 4.759 4.759 0 01-2.131-1.767 4.834 4.834 0 01.592-6.057 4.729 4.729 0 013.356-1.407zm79.133 49.58a7.854 7.854 0 00-3.998 1.098 7.96 7.96 0 00-2.9 2.988l-16.36-5.29-.964 3.047 5.23 1.691v10.197l-3.9-3.941a6.027 6.027 0 00-4.285-1.793 6.027 6.027 0 00-4.284 1.793 6.156 6.156 0 00-1.775 4.33c0 1.623.638 3.18 1.774 4.329l5.797 5.858-.11.223a18.657 18.657 0 00-1.949 8.8c.08 3.051.904 6.035 2.401 8.685v1.167h3.166v-1.6c0-.29-.078-.574-.226-.822a15.451 15.451 0 01-.562-14.8l.62-1.255a1.614 1.614 0 00-.296-1.846l-6.603-6.672a2.94 2.94 0 01-.832-2.063 2.94 2.94 0 01.848-2.056 2.879 2.879 0 012.035-.857c.764-.003 1.498.3 2.042.84l6.602 6.672 4.748 4.798 2.238-2.262-4.284-4.33v-9.87l7.178 7.255a7.951 7.951 0 011.72 2.592c.398.97.601 2.011.598 3.062v23.214h3.166V72.963a11.225 11.225 0 00-1.395-5.442 7.833 7.833 0 007.084 1.046 7.9 7.9 0 003.12-1.974 8.012 8.012 0 001.898-3.186 8.074 8.074 0 00-1.157-7.14 7.933 7.933 0 00-2.805-2.408 7.843 7.843 0 00-3.58-.864zm-12.884 5.51l5.018 1.622a8.029 8.029 0 00.621 4.076l-5.64-5.699zm12.884 7.285c-.94 0-1.857-.282-2.638-.81a4.787 4.787 0 01-1.749-2.152 4.846 4.846 0 01-.27-2.773 4.813 4.813 0 011.3-2.456 4.733 4.733 0 012.43-1.313 4.702 4.702 0 012.744.273 4.755 4.755 0 012.13 1.767 4.834 4.834 0 01-.591 6.056 4.729 4.729 0 01-3.356 1.407zM41.17 89.78v-3.2h12.66v3.2H41.17z" fill="#62D6B3"/></svg>