<svg width="64" height="100" fill="none" xmlns="http://www.w3.org/2000/svg"><path d="M2.91 91.095V20.278H0v70.817c0 4.55 3.255 8.234 7.273 8.234h33.454v-3.294H7.273c-2.4 0-4.364-2.223-4.364-4.94z" fill="#DCDCDC"/><path d="M18.91 89.449h14.545v3.293H18.909v-3.293zM5.818 31.806c0 .906.655 1.647 1.455 1.647h1.582c.309.967 1.109 1.647 2.054 1.647.946 0 1.746-.68 2.055-1.647h3.164c.309.967 1.109 1.647 2.054 1.647.946 0 1.745-.68 2.055-1.647h1.581c.8 0 1.455-.741 1.455-1.647v-4.94c0-.618-.31-1.194-.8-1.483L20 23.983l-1.236-2.799c-.255-.556-.746-.906-1.31-.906h-5.817c-.546 0-1.055.35-1.31.906l-1.236 2.8-2.473 1.4c-.49.288-.8.843-.8 1.482v4.94zm2.91-3.932l2.109-1.194c.272-.164.509-.411.654-.74l1.055-2.389h4.018l1.054 2.388c.146.309.364.577.655.741l2.109 1.194v2.285H8.746v-2.285h-.019zm31.999-9.242v2.182l-2-1.812a1.341 1.341 0 00-1.818 0l-7.273 6.588c-.49.432-.672 1.173-.473 1.832.2.659.764 1.111 1.364 1.111v4.94c0 .907.655 1.648 1.455 1.648h11.636c.8 0 1.455-.742 1.455-1.647v-4.94c.618 0 1.163-.433 1.363-1.112.2-.659.019-1.4-.472-1.832L43.6 23.449v-4.817h-2.873zm1.455 8.234v4.94h-2.91v-3.293h-2.908v3.293h-2.91v-4.94c0-.165-.018-.33-.054-.474l4.418-4.014 4.418 4.014a1.971 1.971 0 00-.054.474zm1.382 18.65l.964-2.182h2.018V40.04h-2.91c-.545 0-1.054.35-1.309.906l-1.054 2.388H30.546c-.437 0-.855.227-1.127.597-.273.37-.382.886-.31 1.359l1.455 8.234c.055.289.182.556.345.783a2.654 2.654 0 00-.363 1.379c0 1.359.982 2.47 2.181 2.47 1.2 0 2.182-1.111 2.182-2.47a3.1 3.1 0 00-.127-.824h3.164a3.1 3.1 0 00-.128.824c0 1.359.982 2.47 2.182 2.47s2.182-1.111 2.182-2.47a2.84 2.84 0 00-.364-1.38c.164-.205.291-.473.346-.782l1.4-8.008zM40.4 46.628l-.872 4.94h-6.346l-.873-4.94H40.4zM5.818 69.685c0 .906.655 1.647 1.455 1.647h1.454v8.234c0 .906.655 1.647 1.455 1.647s1.455-.741 1.455-1.647v-1.647h7.272v1.647c0 .906.655 1.647 1.455 1.647s1.454-.741 1.454-1.647v-3.932l.8.453 1.31-2.944-2.528-1.44c-.69-1.689-2.2-2.842-3.945-2.842H14l-.054-.411c-.255-2.12-1.873-3.706-3.764-3.706-.8 0-1.455.741-1.455 1.647v.288L7 67.05c-.69.145-1.182.824-1.182 1.627v1.009zm5.819 1.914c.272.35.654.556 1.09.556h4.728c.8 0 1.454.741 1.454 1.647v.823h-7.272V71.6z" fill="#DCDCDC"/><path d="M60.69 61.554l-8.326-10.602V8.75c0-4.55-3.255-8.234-7.273-8.234H7.273C3.255.516 0 4.2 0 8.75v8.235h2.91V8.75c0-2.717 1.963-4.94 4.363-4.94H45.09c2.4 0 4.364 2.223 4.364 4.94v58.61l-4.746-5.374c-1.255-1.42-2.909-2.182-4.673-2.182-3.636 0-6.6 3.356-6.6 7.473 0 1.997.691 3.87 1.928 5.29l.382.433h-2.291v-3.294h-2.91v4.941c0 .906.655 1.647 1.455 1.647h3.473l-1.855 4.2 2.6 1.482 2.491-5.64 4.51 5.105c-2.364 4.384-2.6 9.82-.528 14.492l.963 2.162v1.256h2.91v-1.647c0-.247-.055-.515-.146-.741L45.31 94.45c-1.764-3.973-1.382-8.667.982-12.228a1.827 1.827 0 00-.127-2.162l-8.673-9.82c-.691-.782-1.073-1.832-1.073-2.943 0-2.306 1.655-4.18 3.691-4.18.982 0 1.91.433 2.6 1.215l7.218 8.173 4.364 4.94 2.055-2.325-3.982-4.468v-14.76l6.163 7.843c1.655 2.12 2.564 4.838 2.564 7.658V99.33H64V71.394c0-3.623-1.182-7.123-3.31-9.84z" fill="#DCDCDC"/><path d="M5.818 10.398h2.91v3.292h-2.91v-3.292zm5.819 0h2.909v3.292h-2.91v-3.292zm5.817 0h2.91v3.292h-2.91v-3.292zM16 56.51v-4.94h4.363v-3.294H16v-4.942h-2.91v4.942H8.728v3.294h4.364v4.94H16z" fill="#DCDCDC"/></svg>