<svg width="38" height="37" fill="none" xmlns="http://www.w3.org/2000/svg"><path d="M19.427 37C29.685 37 38 28.717 38 18.5S29.685 0 19.427 0C9.17 0 .855 8.283.855 18.5S9.17 37 19.427 37z" fill="#010202"/><path d="M23.288 8.315h-7.687a6.37 6.37 0 00-6.399 6.374v7.657a6.37 6.37 0 006.4 6.374h7.686a6.37 6.37 0 006.4-6.374v-7.657c0-3.534-2.887-6.374-6.4-6.374zm4.487 14.03c0 2.46-2.018 4.47-4.487 4.47h-7.687c-2.469 0-4.486-2.01-4.486-4.47V14.69c0-2.46 2.017-4.469 4.486-4.469h7.687c2.47 0 4.487 2.01 4.487 4.47v7.656z" fill="#fff"/><path d="M19.427 13.407c-2.817 0-5.112 2.287-5.112 5.093s2.295 5.093 5.112 5.093 5.113-2.287 5.113-5.093a5.089 5.089 0 00-5.113-5.093zm0 8.28c-1.774 0-3.2-1.42-3.2-3.187a3.185 3.185 0 013.2-3.187c1.774 0 3.2 1.42 3.2 3.187a3.185 3.185 0 01-3.2 3.187zm5.53-7.968c.385 0 .696-.31.696-.693a.694.694 0 00-.695-.693.694.694 0 00-.696.693c0 .383.311.693.695.693z" fill="#fff"/></svg>