<svg width="39" height="37" fill="none" xmlns="http://www.w3.org/2000/svg"><path d="M19.517 37c10.258 0 18.573-8.283 18.573-18.5S29.775 0 19.517 0C9.26 0 .945 8.283.945 18.5S9.26 37 19.517 37z" fill="#010202"/><path d="M16.178 21.202l-.382 5.266c.521 0 .765-.242 1.043-.52l2.54-2.39 5.216 3.81c.974.52 1.635.243 1.878-.865l3.444-16.006c.313-1.42-.522-1.975-1.461-1.628l-20.173 7.69c-1.39.52-1.356 1.283-.243 1.629l5.147 1.594 11.965-7.483c.556-.382 1.078-.174.66.207l-9.634 8.696z" fill="#fff"/></svg>