<svg width="95" height="87" viewBox="0 0 95 87" fill="none" xmlns="http://www.w3.org/2000/svg">
<rect x="0.121307" y="84.0208" width="17" height="3" transform="rotate(-45 0.121307 84.0208)" fill="#DCDCDC"/>
<rect x="2.12131" y="72.0208" width="17" height="3" transform="rotate(45 2.12131 72.0208)" fill="#DCDCDC"/>
<rect x="28.1213" y="84.0208" width="17" height="3" transform="rotate(-45 28.1213 84.0208)" fill="#DCDCDC"/>
<rect x="30.1213" y="72.0208" width="17" height="3" transform="rotate(45 30.1213 72.0208)" fill="#DCDCDC"/>
<rect x="54.1213" y="84.0208" width="17" height="3" transform="rotate(-45 54.1213 84.0208)" fill="#DCDCDC"/>
<rect x="56.1213" y="72.0208" width="17" height="3" transform="rotate(45 56.1213 72.0208)" fill="#DCDCDC"/>
<rect x="80.1213" y="84.0208" width="17" height="3" transform="rotate(-45 80.1213 84.0208)" fill="#DCDCDC"/>
<rect x="82.1213" y="72.0208" width="17" height="3" transform="rotate(45 82.1213 72.0208)" fill="#DCDCDC"/>
<rect x="0.121307" y="60.0208" width="17" height="3" transform="rotate(-45 0.121307 60.0208)" fill="#DCDCDC"/>
<rect x="2.12131" y="48.0208" width="17" height="3" transform="rotate(45 2.12131 48.0208)" fill="#DCDCDC"/>
<rect x="28.1213" y="60.0208" width="17" height="3" transform="rotate(-45 28.1213 60.0208)" fill="#DCDCDC"/>
<rect x="30.1213" y="48.0208" width="17" height="3" transform="rotate(45 30.1213 48.0208)" fill="#DCDCDC"/>
<rect x="54.1213" y="60.0208" width="17" height="3" transform="rotate(-45 54.1213 60.0208)" fill="#DCDCDC"/>
<rect x="56.1213" y="48.0208" width="17" height="3" transform="rotate(45 56.1213 48.0208)" fill="#DCDCDC"/>
<rect x="80.1213" y="60.0208" width="17" height="3" transform="rotate(-45 80.1213 60.0208)" fill="#DCDCDC"/>
<rect x="82.1213" y="48.0208" width="17" height="3" transform="rotate(45 82.1213 48.0208)" fill="#DCDCDC"/>
<rect x="0.121307" y="36.0208" width="17" height="3" transform="rotate(-45 0.121307 36.0208)" fill="#DCDCDC"/>
<rect x="2.12131" y="24.0208" width="17" height="3" transform="rotate(45 2.12131 24.0208)" fill="#DCDCDC"/>
<rect x="28.1213" y="36.0208" width="17" height="3" transform="rotate(-45 28.1213 36.0208)" fill="#DCDCDC"/>
<rect x="30.1213" y="24.0208" width="17" height="3" transform="rotate(45 30.1213 24.0208)" fill="#DCDCDC"/>
<rect x="54.1213" y="36.0208" width="17" height="3" transform="rotate(-45 54.1213 36.0208)" fill="#DCDCDC"/>
<rect x="56.1213" y="24.0208" width="17" height="3" transform="rotate(45 56.1213 24.0208)" fill="#DCDCDC"/>
<rect x="80.1213" y="36.0208" width="17" height="3" transform="rotate(-45 80.1213 36.0208)" fill="#DCDCDC"/>
<rect x="82.1213" y="24.0208" width="17" height="3" transform="rotate(45 82.1213 24.0208)" fill="#DCDCDC"/>
<rect x="0.121307" y="12.0208" width="17" height="3" transform="rotate(-45 0.121307 12.0208)" fill="#DCDCDC"/>
<rect x="2.12131" y="0.020752" width="17" height="3" transform="rotate(45 2.12131 0.020752)" fill="#DCDCDC"/>
<rect x="28.1213" y="12.0208" width="17" height="3" transform="rotate(-45 28.1213 12.0208)" fill="#DCDCDC"/>
<rect x="30.1213" y="0.020752" width="17" height="3" transform="rotate(45 30.1213 0.020752)" fill="#DCDCDC"/>
<rect x="54.1213" y="12.0208" width="17" height="3" transform="rotate(-45 54.1213 12.0208)" fill="#DCDCDC"/>
<rect x="56.1213" y="0.020752" width="17" height="3" transform="rotate(45 56.1213 0.020752)" fill="#DCDCDC"/>
<rect x="80.1213" y="12.0208" width="17" height="3" transform="rotate(-45 80.1213 12.0208)" fill="#DCDCDC"/>
<rect x="82.1213" y="0.020752" width="17" height="3" transform="rotate(45 82.1213 0.020752)" fill="#DCDCDC"/>
</svg>
