<svg width="95" height="87" viewBox="0 0 95 87" fill="none" xmlns="http://www.w3.org/2000/svg">
<rect x="0.121338" y="84.0209" width="17" height="3" transform="rotate(-45 0.121338 84.0209)" fill="#62D6B3"/>
<rect x="2.12134" y="72.0209" width="17" height="3" transform="rotate(45 2.12134 72.0209)" fill="#62D6B3"/>
<rect x="28.1213" y="84.0209" width="17" height="3" transform="rotate(-45 28.1213 84.0209)" fill="#62D6B3"/>
<rect x="30.1213" y="72.0209" width="17" height="3" transform="rotate(45 30.1213 72.0209)" fill="#62D6B3"/>
<rect x="54.1213" y="84.0209" width="17" height="3" transform="rotate(-45 54.1213 84.0209)" fill="#62D6B3"/>
<rect x="56.1213" y="72.0209" width="17" height="3" transform="rotate(45 56.1213 72.0209)" fill="#62D6B3"/>
<rect x="80.1213" y="84.0209" width="17" height="3" transform="rotate(-45 80.1213 84.0209)" fill="#62D6B3"/>
<rect x="82.1213" y="72.0209" width="17" height="3" transform="rotate(45 82.1213 72.0209)" fill="#62D6B3"/>
<rect x="0.121338" y="60.0209" width="17" height="3" transform="rotate(-45 0.121338 60.0209)" fill="#62D6B3"/>
<rect x="2.12134" y="48.0209" width="17" height="3" transform="rotate(45 2.12134 48.0209)" fill="#62D6B3"/>
<rect x="28.1213" y="60.0209" width="17" height="3" transform="rotate(-45 28.1213 60.0209)" fill="#62D6B3"/>
<rect x="30.1213" y="48.0209" width="17" height="3" transform="rotate(45 30.1213 48.0209)" fill="#62D6B3"/>
<rect x="54.1213" y="60.0209" width="17" height="3" transform="rotate(-45 54.1213 60.0209)" fill="#62D6B3"/>
<rect x="56.1213" y="48.0209" width="17" height="3" transform="rotate(45 56.1213 48.0209)" fill="#62D6B3"/>
<rect x="80.1213" y="60.0209" width="17" height="3" transform="rotate(-45 80.1213 60.0209)" fill="#62D6B3"/>
<rect x="82.1213" y="48.0209" width="17" height="3" transform="rotate(45 82.1213 48.0209)" fill="#62D6B3"/>
<rect x="0.121338" y="36.0209" width="17" height="3" transform="rotate(-45 0.121338 36.0209)" fill="#62D6B3"/>
<rect x="2.12134" y="24.0209" width="17" height="3" transform="rotate(45 2.12134 24.0209)" fill="#62D6B3"/>
<rect x="28.1213" y="36.0209" width="17" height="3" transform="rotate(-45 28.1213 36.0209)" fill="#62D6B3"/>
<rect x="30.1213" y="24.0209" width="17" height="3" transform="rotate(45 30.1213 24.0209)" fill="#62D6B3"/>
<rect x="54.1213" y="36.0209" width="17" height="3" transform="rotate(-45 54.1213 36.0209)" fill="#62D6B3"/>
<rect x="56.1213" y="24.0209" width="17" height="3" transform="rotate(45 56.1213 24.0209)" fill="#62D6B3"/>
<rect x="80.1213" y="36.0209" width="17" height="3" transform="rotate(-45 80.1213 36.0209)" fill="#62D6B3"/>
<rect x="82.1213" y="24.0209" width="17" height="3" transform="rotate(45 82.1213 24.0209)" fill="#62D6B3"/>
<rect x="0.121338" y="12.0209" width="17" height="3" transform="rotate(-45 0.121338 12.0209)" fill="#62D6B3"/>
<rect x="2.12134" y="0.020874" width="17" height="3" transform="rotate(45 2.12134 0.020874)" fill="#62D6B3"/>
<rect x="28.1213" y="12.0209" width="17" height="3" transform="rotate(-45 28.1213 12.0209)" fill="#62D6B3"/>
<rect x="30.1213" y="0.020874" width="17" height="3" transform="rotate(45 30.1213 0.020874)" fill="#62D6B3"/>
<rect x="54.1213" y="12.0209" width="17" height="3" transform="rotate(-45 54.1213 12.0209)" fill="#62D6B3"/>
<rect x="56.1213" y="0.020874" width="17" height="3" transform="rotate(45 56.1213 0.020874)" fill="#62D6B3"/>
<rect x="80.1213" y="12.0209" width="17" height="3" transform="rotate(-45 80.1213 12.0209)" fill="#62D6B3"/>
<rect x="82.1213" y="0.020874" width="17" height="3" transform="rotate(45 82.1213 0.020874)" fill="#62D6B3"/>
</svg>
