<svg width="103" height="75" viewBox="0 0 103 75" fill="none" xmlns="http://www.w3.org/2000/svg">
<path d="M101.896 33.2384C101.115 29.5589 99.1881 26.3219 96.4684 24.1218C93.8171 22.0088 90.644 20.898 87.4019 20.9479L73.2056 20.9479L73.2056 23.6491L77.381 23.6491L76.7845 56.0637L85.3142 56.0637C87.1762 56.0623 89.0338 55.8588 90.8615 55.4559C92.88 55.1004 94.7987 54.2222 96.4684 52.8898C97.9825 51.6927 99.2656 50.1594 100.24 48.3831C101.214 46.6069 101.859 44.6249 102.135 42.5576C102.195 42.0174 102.97 37.1552 101.896 33.2384ZM99.9876 41.0044C99.3912 45.9341 97.721 48.5678 95.5737 50.4587C94.7386 51.2015 91.0404 53.3625 84.8967 53.3625L79.7669 53.3625L79.7669 23.6491L87.5212 23.6491C90.4135 23.5946 93.242 24.6145 95.5737 26.5529C96.6978 27.4664 97.6509 28.623 98.3778 29.956C99.1047 31.289 99.591 32.7719 99.8087 34.3189C100.584 38.5058 99.9876 41.0044 99.9876 41.0044Z" fill="#3AB2B4"/>
<path d="M47.1992 19.5977C38.4905 19.5977 31.3924 27.7688 31.3924 37.8308C31.3924 47.8929 38.4905 56.064 47.1992 56.064C55.9078 56.064 63.0059 47.8929 63.0059 37.8308C63.0059 27.7688 55.9078 19.5977 47.1992 19.5977ZM47.1992 53.3628C43.6013 53.3142 40.1674 51.6515 37.6512 48.7395C35.135 45.8275 33.7422 41.9043 33.7783 37.8308C33.7391 35.8074 34.0572 33.7955 34.714 31.9131C35.3708 30.0307 36.3531 28.3159 37.6032 26.8691C38.8533 25.4223 40.3461 24.2728 41.994 23.4881C43.6418 22.7033 45.4115 22.299 47.1992 22.299C48.9868 22.299 50.7565 22.7033 52.4044 23.4881C54.0522 24.2728 55.545 25.4223 56.7951 26.8691C58.0452 28.3159 59.0275 30.0307 59.6843 31.9131C60.3412 33.7955 60.6593 35.8074 60.62 37.8308C60.6562 41.9043 59.2633 45.8275 56.7471 48.7395C54.2309 51.6515 50.7971 53.3142 47.1992 53.3628Z" fill="#3AB2B4"/>
<path d="M3 23.5144L3 21.1509L8.84552 21.1509L19.105 51.6071L28.3505 23.5144L24.6523 23.5144L24.6523 21.1509L34.6732 21.1509L34.6732 23.5144L30.4382 23.5144L19.9401 56.0641L17.7927 56.0641L6.99643 23.5144L3 23.5144Z" fill="#3AB2B4"/>
<path d="M69.3082 20.5327L69.3082 56.0641L66.7579 56.0641L66.7579 20.5327L69.3082 20.5327Z" fill="#3AB2B4"/>
</svg>
