<svg width="64" height="100" viewBox="0 0 64 100" fill="none" xmlns="http://www.w3.org/2000/svg">
<path d="M2.90909 91.0946V20.2783H0V91.0946C0 95.6442 3.25455 99.3291 7.27273 99.3291H40.7273V96.0353H7.27273C4.87273 96.0353 2.90909 93.812 2.90909 91.0946Z" fill="#DCDCDC"/>
<path d="M18.9092 89.4487H33.4546V92.7417H18.9092V89.4487Z" fill="#DCDCDC"/>
<path d="M5.81836 31.806C5.81836 32.7117 6.47291 33.4528 7.27291 33.4528H8.85473C9.16382 34.4203 9.96382 35.0996 10.9093 35.0996C11.8547 35.0996 12.6547 34.4203 12.9638 33.4528H16.1275C16.4366 34.4203 17.2366 35.0996 18.182 35.0996C19.1275 35.0996 19.9275 34.4203 20.2366 33.4528H21.8184C22.6184 33.4528 23.2729 32.7117 23.2729 31.806V26.8656C23.2729 26.248 22.9639 25.6716 22.4729 25.3834L20.0002 23.9836L18.7638 21.1841C18.5093 20.6283 18.0184 20.2783 17.4548 20.2783H11.6366C11.0911 20.2783 10.582 20.6283 10.3275 21.1841L9.09109 23.9836L6.61836 25.3834C6.12745 25.6716 5.81836 26.2274 5.81836 26.8656V31.806ZM8.72746 27.8742L10.8366 26.6803C11.1093 26.5156 11.3456 26.2686 11.4911 25.9392L12.5456 23.5514H16.5638L17.6184 25.9392C17.7638 26.248 17.982 26.5156 18.2729 26.6803L20.382 27.8742V30.1592H8.74564V27.8742H8.72746Z" fill="#DCDCDC"/>
<path d="M40.7272 18.6318V20.8139L38.7272 19.0024C38.1999 18.5289 37.4363 18.5289 36.909 19.0024L29.6363 25.5896C29.1454 26.0219 28.9635 26.763 29.1635 27.4217C29.3635 28.0805 29.9272 28.5333 30.5272 28.5333V33.4738C30.5272 34.3795 31.1817 35.1206 31.9817 35.1206H43.6181C44.4181 35.1206 45.0727 34.3795 45.0727 33.4738V28.5333C45.6909 28.5333 46.2363 28.101 46.4363 27.4217C46.6363 26.763 46.4545 26.0219 45.9636 25.5896L43.5999 23.4488V18.6318H40.7272ZM42.1818 26.8659V31.8064H39.2727V28.5127H36.3636V31.8064H33.4545V26.8659C33.4545 26.7012 33.4363 26.5366 33.3999 26.3925L37.8181 22.3783L42.2363 26.3925C42.1999 26.5366 42.1818 26.7012 42.1818 26.8659Z" fill="#DCDCDC"/>
<path d="M43.5638 45.5164L44.5275 43.3343H46.5457V40.0405H43.6366C43.0911 40.0405 42.582 40.3905 42.3275 40.9463L41.273 43.3343H30.5457C30.1094 43.3343 29.6912 43.5607 29.4185 43.9313C29.1457 44.3018 29.0366 44.8165 29.1094 45.29L30.5639 53.5244C30.6185 53.8126 30.7457 54.0802 30.9094 54.3067C30.673 54.6978 30.5457 55.1713 30.5457 55.6859C30.5457 57.0446 31.5275 58.1562 32.7275 58.1562C33.9275 58.1562 34.9093 57.0446 34.9093 55.6859C34.9093 55.3977 34.8548 55.1301 34.7821 54.8625H37.9457C37.873 55.1301 37.8184 55.3977 37.8184 55.6859C37.8184 57.0446 38.8002 58.1562 40.0002 58.1562C41.2002 58.1562 42.182 57.0446 42.182 55.6859C42.182 55.1713 42.0366 54.6978 41.8184 54.3067C41.982 54.1008 42.1093 53.8332 42.1639 53.5244L43.5638 45.5164ZM40.4002 46.6281L39.5275 51.5687H33.1821L32.3094 46.6281H40.4002Z" fill="#DCDCDC"/>
<path d="M5.81836 69.6848C5.81836 70.5905 6.47291 71.3316 7.27292 71.3316H8.72748V79.566C8.72748 80.4718 9.38203 81.2129 10.182 81.2129C10.982 81.2129 11.6366 80.4718 11.6366 79.566V77.9191H18.9094V79.566C18.9094 80.4718 19.5639 81.2129 20.3639 81.2129C21.1639 81.2129 21.8185 80.4718 21.8185 79.566V75.6341L22.6185 76.087L23.9276 73.1432L21.4003 71.7022C20.7094 70.0141 19.2003 68.8613 17.4548 68.8613H14.0002L13.9457 68.4496C13.6912 66.3293 12.073 64.7441 10.182 64.7441C9.38203 64.7441 8.72748 65.4852 8.72748 66.391V66.6792L7.00019 67.0498C6.30927 67.1939 5.81836 67.8732 5.81836 68.6761V69.6848ZM11.6366 71.5993C11.9093 71.9492 12.2911 72.1551 12.7275 72.1551H17.4548C18.2548 72.1551 18.9094 72.8962 18.9094 73.802V74.6254H11.6366V71.5993Z" fill="#DCDCDC"/>
<path d="M60.6909 61.5541L52.3636 50.9521V8.75016C52.3636 4.20058 49.1091 0.515625 45.0909 0.515625H7.27273C3.25455 0.515625 0 4.20058 0 8.75016V16.9847H2.90909V8.75016C2.90909 6.03276 4.87273 3.80944 7.27273 3.80944H45.0909C47.4909 3.80944 49.4545 6.03276 49.4545 8.75016V51.5697V67.3594L44.7091 61.9864C43.4545 60.5659 41.8 59.8042 40.0364 59.8042C36.4 59.8042 33.4364 63.1598 33.4364 67.2771C33.4364 69.274 34.1273 71.1473 35.3636 72.5678L35.7455 73.0001H33.4545V69.7063H30.5455V74.647C30.5455 75.5528 31.2 76.2939 32 76.2939H35.4727L33.6182 80.4935L36.2182 81.9757L38.7091 76.3351L43.2182 81.4405C40.8545 85.8254 40.6182 91.2602 42.6909 95.9333L43.6545 98.0948V99.3506H46.5636V97.7037C46.5636 97.4566 46.5091 97.189 46.4182 96.9626L45.3091 94.451C43.5455 90.4779 43.9273 85.7842 46.2909 82.2228C46.7273 81.564 46.6727 80.6582 46.1636 80.0612L37.4909 70.2415C36.8 69.4592 36.4182 68.4093 36.4182 67.2977C36.4182 64.992 38.0727 63.1186 40.1091 63.1186C41.0909 63.1186 42.0182 63.551 42.7091 64.3332L49.9273 72.506L54.2909 77.4467L56.3455 75.1205L52.3636 70.6532V55.8928L58.5273 63.7362C60.1818 65.8566 61.0909 68.574 61.0909 71.3943V99.33H64V71.3943C64 67.7712 62.8182 64.2715 60.6909 61.5541Z" fill="#DCDCDC"/>
<path d="M5.81836 10.3975H8.72754V13.6904H5.81836V10.3975Z" fill="#DCDCDC"/>
<path d="M11.6368 10.3975H14.5459V13.6904H11.6368V10.3975Z" fill="#DCDCDC"/>
<path d="M17.4543 10.3975H20.3635V13.6904H17.4543V10.3975Z" fill="#DCDCDC"/>
<path d="M15.9999 56.5107V51.5696H20.3635V48.2756H15.9999V43.3345H13.0908V48.2756H8.72717V51.5696H13.0908V56.5107H15.9999Z" fill="#DCDCDC"/>
</svg>
