<svg width="95" height="97" viewBox="0 0 95 97" fill="none" xmlns="http://www.w3.org/2000/svg">
<path d="M12.2942 81.5117C10.6563 80.4171 8.67452 79.9762 6.73315 80.2743C4.79177 80.5725 3.02913 81.5886 1.78701 83.1255C0.544888 84.6624 -0.08821 86.6106 0.0104759 88.5925C0.109162 90.5743 0.9326 92.4485 2.32112 93.8517C3.70965 95.2548 5.56431 96.0869 7.5255 96.1867C9.48669 96.2864 11.4146 95.6466 12.9355 94.3914C14.4564 93.1362 15.4619 91.355 15.757 89.3932C16.052 87.4314 15.6157 85.4287 14.5325 83.7736L23.7602 74.4486V88.1801C23.7626 90.3003 24.5971 92.3329 26.0806 93.832C27.5641 95.3312 29.5755 96.1744 31.6736 96.1768H58.5789V92.9781H31.6736C30.4147 92.9767 29.2079 92.4707 28.3178 91.5713C27.4277 90.6718 26.927 89.4522 26.9256 88.1801V71.25L37.5407 60.5231L35.3024 58.2612L26.9256 66.7263V56.5293L30.5732 55.3498L29.6086 52.3033L26.9256 53.1707V43.2228L35.9392 46.1376L36.9039 43.0909L26.9256 39.8642V32.2034H23.7602V38.8407L15.7998 36.2665C16.0144 34.294 15.4964 32.3112 14.3464 30.7026C13.1964 29.094 11.4963 27.9743 9.57565 27.5605C7.65503 27.1468 5.6508 27.4685 3.95159 28.4633C2.25238 29.4581 0.979264 31.0551 0.379107 32.9446C-0.22105 34.8341 -0.105485 36.8815 0.703395 38.6898C1.51227 40.4981 2.95683 41.9384 4.75696 42.7315C6.55709 43.5246 8.58452 43.6139 10.4461 42.9821C12.3077 42.3504 13.8708 41.0426 14.8324 39.3123L23.7602 42.1993V54.1943L14.8324 57.0813C13.8719 55.3543 12.3111 54.0492 10.4526 53.4189C8.59399 52.7887 6.57006 52.8783 4.77314 53.6703C2.97622 54.4624 1.53432 55.9004 0.72697 57.7057C-0.0803794 59.5109 -0.195664 61.5548 0.403467 63.4411C1.0026 65.3274 2.27346 66.9216 3.96968 67.9149C5.66591 68.9081 7.66665 69.2295 9.58405 68.8168C11.5014 68.4041 13.1989 67.2866 14.3473 65.6811C15.4958 64.0755 16.0134 62.0963 15.7998 60.127L23.7602 57.5529V69.9249L12.2942 81.5117ZM7.93356 92.9781C6.99449 92.9781 6.07651 92.6967 5.29571 92.1695C4.5149 91.6423 3.90634 90.893 3.54697 90.0163C3.18761 89.1395 3.09358 88.1748 3.27679 87.2441C3.45999 86.3134 3.91219 85.4585 4.57621 84.7874C5.24023 84.1164 6.08624 83.6595 7.00727 83.4743C7.92829 83.2892 8.88295 83.3842 9.75054 83.7474C10.6181 84.1105 11.3597 84.7255 11.8814 85.5145C12.4031 86.3035 12.6816 87.2312 12.6816 88.1801C12.6801 89.4522 12.1794 90.6717 11.2893 91.5712C10.3992 92.4707 9.19235 92.9767 7.93356 92.9781ZM7.93356 40.2001C6.99449 40.2001 6.07651 39.9187 5.29571 39.3915C4.5149 38.8643 3.90634 38.1149 3.54697 37.2382C3.18761 36.3615 3.09358 35.3968 3.27679 34.4661C3.45999 33.5353 3.91219 32.6804 4.57621 32.0094C5.24023 31.3384 6.08624 30.8814 7.00727 30.6963C7.92829 30.5112 8.88295 30.6062 9.75054 30.9693C10.6181 31.3325 11.3597 31.9474 11.8814 32.7365C12.4031 33.5255 12.6816 34.4531 12.6816 35.4021C12.6801 36.6742 12.1794 37.8937 11.2893 38.7932C10.3992 39.6926 9.19235 40.1986 7.93356 40.2001ZM7.93356 65.7895C6.99449 65.7895 6.07651 65.5081 5.29571 64.9808C4.5149 64.4536 3.90634 63.7043 3.54697 62.8276C3.18761 61.9508 3.09358 60.9861 3.27679 60.0554C3.45999 59.1247 3.91219 58.2698 4.57621 57.5988C5.24023 56.9277 6.08624 56.4708 7.00727 56.2856C7.92829 56.1005 8.88295 56.1955 9.75054 56.5587C10.6181 56.9218 11.3597 57.5368 11.8814 58.3258C12.4031 59.1149 12.6816 60.0425 12.6816 60.9915C12.6801 62.2635 12.1794 63.483 11.2893 64.3825C10.3992 65.282 9.19235 65.788 7.93356 65.7895ZM61.6042 49.1382C61.4789 48.8576 61.2761 48.6196 61.0202 48.4526C60.7643 48.2856 60.4662 48.1968 60.1616 48.1968H52.6552L56.9567 29.3646C57.0367 29.0127 56.9966 28.6437 56.8427 28.3177C56.6889 27.9918 56.4304 27.728 56.1093 27.5694C55.7883 27.4108 55.4235 27.3667 55.0745 27.4442C54.7255 27.5217 54.4126 27.7164 54.187 27.9964L33.6123 53.5857C33.4238 53.8202 33.3049 54.1039 33.2693 54.4039C33.2338 54.7038 33.283 55.0078 33.4114 55.2807C33.5397 55.5536 33.7419 55.7841 33.9945 55.9456C34.2472 56.1072 34.5399 56.1931 34.8389 56.1935H42.0889L34.9311 76.4468C34.8072 76.797 34.8079 77.1798 34.9331 77.5295C35.0583 77.8792 35.3002 78.1739 35.6172 78.3629C35.9341 78.5518 36.3064 78.6233 36.6698 78.5649C37.0333 78.5065 37.3652 78.3219 37.6086 78.043L61.3486 50.8543C61.5501 50.6234 61.6814 50.3387 61.7267 50.0343C61.7721 49.7299 61.7295 49.4188 61.6042 49.1382ZM40.6801 69.6896L45.8254 55.1315C45.9106 54.8902 45.9371 54.6317 45.9028 54.3778C45.8685 54.1239 45.7744 53.8821 45.6283 53.6727C45.4822 53.4632 45.2885 53.2923 45.0634 53.1744C44.8383 53.0564 44.5885 52.9948 44.3349 52.9948H38.1641L52.3359 35.3687L49.1234 49.4363C49.0699 49.6707 49.0693 49.9143 49.1219 50.149C49.1744 50.3837 49.2787 50.6034 49.4269 50.7917C49.5751 50.98 49.7635 51.1321 49.978 51.2366C50.1924 51.3412 50.4275 51.3955 50.6656 51.3954H56.6544L40.6801 69.6896ZM53.3674 8.68183L51.1291 10.9437C50.1659 9.97249 48.8609 9.42705 47.5002 9.42705C46.1396 9.42705 44.8345 9.97249 43.8714 10.9437L41.6331 8.68183C43.1904 7.11171 45.3004 6.22992 47.5002 6.22992C49.7001 6.22992 51.8101 7.11171 53.3674 8.68183ZM55.8771 6.92256C54.777 5.81091 53.4711 4.9291 52.0337 4.32748C50.5964 3.72586 49.056 3.41621 47.5002 3.41621C45.9445 3.41621 44.404 3.72586 42.9667 4.32748C41.5294 4.9291 40.2234 5.81091 39.1234 6.92256L36.8851 4.6601C39.7026 1.81932 43.5201 0.223928 47.5002 0.223928C51.4803 0.223928 55.2979 1.81932 58.1154 4.6601L55.8771 6.92256ZM7.93356 16.2101C9.48492 16.2116 11.0021 15.7495 12.2942 14.8818L38.4676 41.3308L40.7058 39.069L26.9256 25.1436V21.0081C26.927 19.736 27.4277 18.5165 28.3178 17.617C29.2079 16.7175 30.4147 16.2115 31.6736 16.2101H38.6088L39.7541 18.5247C39.8855 18.7904 40.0876 19.0138 40.3376 19.1699C40.5876 19.326 40.8757 19.4088 41.1696 19.4088H53.8309C54.1248 19.4088 54.4129 19.326 54.6629 19.1699C54.9129 19.0138 55.1149 18.7904 55.2464 18.5247L56.3916 16.2101H63.3269C64.5857 16.2115 65.7926 16.7175 66.6827 17.617C67.5728 18.5165 68.0735 19.736 68.0749 21.0081V25.1436L55.8771 37.4698L58.1154 39.7317L68.0749 29.6673V39.8642L58.0966 43.0909L59.0612 46.1376L68.0749 43.2228V49.7961H71.2402V42.1993L80.1681 39.3123C81.1285 41.0393 82.6893 42.3444 84.5479 42.9746C86.4065 43.6048 88.4304 43.5152 90.2273 42.7232C92.0242 41.9312 93.4661 40.4932 94.2735 38.6879C95.0808 36.8826 95.1961 34.8387 94.597 32.9525C93.9979 31.0662 92.727 29.4719 91.0308 28.4787C89.3345 27.4855 87.3338 27.1641 85.4164 27.5768C83.499 27.9895 81.8016 29.1069 80.6531 30.7125C79.5047 32.318 78.9871 34.2973 79.2006 36.2665L71.2402 38.8407V26.4686L82.7063 14.8818C84.3442 15.9764 86.3259 16.4174 88.2673 16.1192C90.2087 15.821 91.9713 14.805 93.2134 13.2681C94.4556 11.7312 95.0887 9.78291 94.99 7.80107C94.8913 5.81923 94.0679 3.94503 92.6793 2.54188C91.2908 1.13874 89.4361 0.306627 87.475 0.206902C85.5138 0.107177 83.5858 0.746943 82.0649 2.00215C80.544 3.25735 79.5386 5.03855 79.2435 7.00037C78.9484 8.96219 79.3848 10.9648 80.468 12.62L71.2402 21.9449V21.0081C71.2379 18.888 70.4034 16.8554 68.9199 15.3562C67.4363 13.8571 65.4249 13.0138 63.3269 13.0114H31.6736C29.5755 13.0138 27.5641 13.8571 26.0806 15.3562C24.5971 16.8554 23.7626 18.888 23.7602 21.0081V21.9449L14.5325 12.62C15.503 11.1342 15.9549 9.36353 15.8166 7.58875C15.6782 5.81396 14.9576 4.13663 13.7688 2.8227C12.5801 1.50876 10.9914 0.633433 9.25448 0.335489C7.5176 0.0375448 5.732 0.33404 4.18079 1.17797C2.62958 2.02189 1.40155 3.36494 0.6914 4.99418C-0.0187509 6.62342 -0.170374 8.44559 0.26057 10.1718C0.691514 11.898 1.68036 13.4294 3.07033 14.5233C4.46029 15.6171 6.17183 16.2108 7.93356 16.2101ZM87.0669 30.6041C88.006 30.6041 88.9239 30.8855 89.7047 31.4127C90.4855 31.9399 91.0941 32.6893 91.4535 33.566C91.8128 34.4427 91.9069 35.4074 91.7237 36.3381C91.5405 37.2689 91.0883 38.1238 90.4242 38.7948C89.7602 39.4658 88.9142 39.9228 87.9932 40.1079C87.0722 40.293 86.1175 40.198 85.2499 39.8349C84.3823 39.4717 83.6408 38.8568 83.1191 38.0677C82.5974 37.2787 82.3189 36.3511 82.3189 35.4021C82.3204 34.13 82.8211 32.9105 83.7112 32.011C84.6013 31.1116 85.8081 30.6056 87.0669 30.6041ZM87.0669 3.41542C88.006 3.41542 88.9239 3.69682 89.7047 4.22403C90.4855 4.75124 91.0941 5.50058 91.4535 6.3773C91.8128 7.25402 91.9069 8.21874 91.7237 9.14946C91.5405 10.0802 91.0883 10.9351 90.4242 11.6061C89.7602 12.2771 88.9142 12.7341 87.9932 12.9192C87.0722 13.1044 86.1175 13.0093 85.2499 12.6462C84.3823 12.283 83.6408 11.6681 83.1191 10.879C82.5974 10.09 82.3189 9.16238 82.3189 8.21342C82.3204 6.94137 82.8211 5.72184 83.7112 4.82236C84.6013 3.92288 85.8081 3.4169 87.0669 3.41542ZM7.93356 3.41542C8.87262 3.41542 9.7906 3.69682 10.5714 4.22403C11.3522 4.75124 11.9608 5.50058 12.3201 6.3773C12.6795 7.25402 12.7735 8.21874 12.5903 9.14946C12.4071 10.0802 11.9549 10.9351 11.2909 11.6061C10.6269 12.2771 9.78087 12.7341 8.85984 12.9192C7.93882 13.1044 6.98416 13.0093 6.11657 12.6462C5.24899 12.283 4.50745 11.6681 3.98574 10.879C3.46402 10.09 3.18555 9.16238 3.18555 8.21342C3.18702 6.94137 3.68773 5.72184 4.57783 4.82236C5.46794 3.92288 6.67476 3.4169 7.93356 3.41542ZM87.0669 52.9948C85.6615 52.9959 84.2818 53.375 83.0694 54.0932C81.857 54.8113 80.8556 55.8427 80.1681 57.0813L63.8092 51.7913L62.8446 54.838L68.0749 56.5293V66.7265L64.1744 62.7849C63.0381 61.6366 61.497 60.9915 59.89 60.9915C58.283 60.9915 56.7419 61.6366 55.6056 62.7848C54.4692 63.9331 53.8309 65.4904 53.8308 67.1143C53.8308 68.7382 54.4692 70.2956 55.6055 71.4439L61.402 77.3015L61.2912 77.5254C59.9334 80.2514 59.2642 83.2745 59.3433 86.3253C59.4223 89.376 60.2472 92.3596 61.7442 95.0101V96.1768H64.9096V94.5775C64.9095 94.2876 64.8315 94.0032 64.684 93.7546C63.3596 91.537 62.6133 89.0163 62.515 86.4281C62.4166 83.8398 62.9694 81.2687 64.1216 78.955L64.7424 77.7001C64.8909 77.3998 64.9422 77.0599 64.8889 76.7286C64.8357 76.3972 64.6806 76.0912 64.4456 75.8539L57.8434 69.1822C57.3075 68.6324 57.0085 67.8908 57.0114 67.1191C57.0144 66.3475 57.319 65.6082 57.859 65.0626C58.3989 64.5169 59.1305 64.209 59.8941 64.206C60.6577 64.203 61.3916 64.5051 61.9357 65.0466L68.538 71.7184L73.286 76.5164L75.5243 74.2545L71.2402 69.9249V60.0544L78.4184 67.3088C79.1555 68.0496 79.7399 68.9307 80.1378 69.9012C80.5356 70.8717 80.739 71.9124 80.7362 72.9629V96.1768H83.9016V72.9629C83.905 71.0581 83.4248 69.1843 82.5068 67.5207C83.5232 68.2456 84.6943 68.7181 85.9252 68.8998C87.1561 69.0815 88.412 68.9673 89.5911 68.5665C90.7701 68.1657 91.839 67.4896 92.711 66.5931C93.5829 65.6965 94.2334 64.6048 94.6095 63.4066C94.9857 62.2084 95.0769 60.9375 94.8758 59.6969C94.6747 58.4564 94.187 57.2813 93.4522 56.267C92.7174 55.2527 91.7563 54.4277 90.6468 53.8592C89.5373 53.2906 88.3109 52.9945 87.0669 52.9948ZM74.1828 58.5043L79.2006 60.127C79.0495 61.5173 79.2638 62.9233 79.822 64.2031L74.1828 58.5043ZM87.0669 65.7895C86.1278 65.7895 85.2099 65.5081 84.4291 64.9808C83.6482 64.4536 83.0397 63.7043 82.6803 62.8276C82.321 61.9508 82.2269 60.9861 82.4101 60.0554C82.5933 59.1247 83.0455 58.2698 83.7096 57.5988C84.3736 56.9277 85.2196 56.4708 86.1406 56.2856C87.0616 56.1005 88.0163 56.1955 88.8839 56.5587C89.7515 56.9218 90.493 57.5368 91.0147 58.3258C91.5364 59.1149 91.8149 60.0425 91.8149 60.9915C91.8134 62.2635 91.3127 63.483 90.4226 64.3825C89.5325 65.282 88.3257 65.788 87.0669 65.7895ZM41.1696 89.7795V86.5808H53.8309V89.7795H41.1696Z" fill="#62D6B3"/>
</svg>
