<svg width="39" height="37" viewBox="0 0 39 37" fill="none" xmlns="http://www.w3.org/2000/svg">
<path d="M19.5173 37C29.7747 37 38.0899 28.7173 38.0899 18.5C38.0899 8.28273 29.7747 0 19.5173 0C9.25997 0 0.944748 8.28273 0.944748 18.5C0.944748 28.7173 9.25997 37 19.5173 37Z" fill="#010202"/>
<path d="M16.1784 21.2021L15.7958 26.468C16.3175 26.468 16.561 26.2255 16.8392 25.9483L19.3781 23.5579L24.5952 27.3687C25.569 27.8884 26.2298 27.6112 26.4733 26.5026L29.9165 10.497C30.2295 9.0766 29.3948 8.5223 28.4558 8.86874L8.28328 16.5597C6.89208 17.0794 6.92686 17.8416 8.03982 18.188L13.1873 19.7817L25.1516 12.2985C25.7081 11.9174 26.2298 12.1253 25.8125 12.5064L16.1784 21.2021Z" fill="white"/>
</svg>
