<svg width="38" height="37" viewBox="0 0 38 37" fill="none" xmlns="http://www.w3.org/2000/svg">
<path d="M19.4274 37C29.6847 37 37.9999 28.7173 37.9999 18.5C37.9999 8.28273 29.6847 0 19.4274 0C9.17001 0 0.854782 8.28273 0.854782 18.5C0.854782 28.7173 9.17001 37 19.4274 37Z" fill="#010202"/>
<path d="M23.288 8.3147H15.6015C12.054 8.3147 9.20201 11.1555 9.20201 14.6892V22.3456C9.20201 25.8793 12.054 28.7201 15.6015 28.7201H23.288C26.8355 28.7201 29.6875 25.8793 29.6875 22.3456V14.6892C29.6875 11.1555 26.8007 8.3147 23.288 8.3147ZM27.7746 22.3456C27.7746 24.8053 25.7573 26.8147 23.288 26.8147H15.6015C13.1322 26.8147 11.1149 24.8053 11.1149 22.3456V14.6892C11.1149 12.2295 13.1322 10.2201 15.6015 10.2201H23.288C25.7573 10.2201 27.7746 12.2295 27.7746 14.6892V22.3456Z" fill="white"/>
<path d="M19.4272 13.4072C16.61 13.4072 14.3145 15.6937 14.3145 18.4999C14.3145 21.3061 16.61 23.5926 19.4272 23.5926C22.2444 23.5926 24.5399 21.3061 24.5399 18.4999C24.5399 15.6937 22.2792 13.4072 19.4272 13.4072ZM19.4272 21.6872C17.6534 21.6872 16.2275 20.2668 16.2275 18.4999C16.2275 16.7331 17.6534 15.3127 19.4272 15.3127C21.201 15.3127 22.627 16.7331 22.627 18.4999C22.627 20.2668 21.201 21.6872 19.4272 21.6872Z" fill="white"/>
<path d="M24.9575 13.719C25.3417 13.719 25.6531 13.4088 25.6531 13.0261C25.6531 12.6435 25.3417 12.3333 24.9575 12.3333C24.5733 12.3333 24.2619 12.6435 24.2619 13.0261C24.2619 13.4088 24.5733 13.719 24.9575 13.719Z" fill="white"/>
</svg>
